HIERARCHY
ROOT Hips
{
	OFFSET 0.000000 0.000000 0.000000
	CHANNELS 6 Xposition Yposition Zposition Zrotation Yrotation Xrotation 
	JOINT LHipJoint
	{
		OFFSET 0.000000 0.000000 0.000000
		CHANNELS 3 Zrotation Yrotation Xrotation
		JOINT LeftUpLeg
		{
			OFFSET 1.363060 -1.794630 0.839290
			CHANNELS 3 Zrotation Yrotation Xrotation
			JOINT LeftLeg
			{
				OFFSET 2.448110 -6.726130 0.000000
				CHANNELS 3 Zrotation Yrotation Xrotation
				JOINT LeftFoot
				{
					OFFSET 2.562200 -7.039590 0.000000
					CHANNELS 3 Zrotation Yrotation Xrotation
					JOINT LeftToeBase
					{
						OFFSET 0.157640 -0.433110 2.322550
						CHANNELS 3 Zrotation Yrotation Xrotation
						End Site
						{
							OFFSET 0.000000 0.000000 0.000000
						}
					}
				}
			}
		}
	}
	JOINT RHipJoint
	{
		OFFSET 0.000000 0.000000 0.000000
		CHANNELS 3 Zrotation Yrotation Xrotation
		JOINT RightUpLeg
		{
			OFFSET -1.305520 -1.794630 0.839290
			CHANNELS 3 Zrotation Yrotation Xrotation
			JOINT RightLeg
			{
				OFFSET -2.542530 -6.985550 0.000000
				CHANNELS 3 Zrotation Yrotation Xrotation
				JOINT RightFoot
				{
					OFFSET -2.568260 -7.056230 0.000000
					CHANNELS 3 Zrotation Yrotation Xrotation
					JOINT RightToeBase
					{
						OFFSET -0.164730 -0.452590 2.363150
						CHANNELS 3 Zrotation Yrotation Xrotation
						End Site
						{
							OFFSET 0.000000 0.000000 0.000000
						}
					}
				}
			}
		}
	}
	JOINT LowerBack
	{
		OFFSET 0.000000 0.000000 0.000000
		CHANNELS 3 Zrotation Yrotation Xrotation
		JOINT Spine
		{
			OFFSET 0.028270 2.035590 -0.193380
			CHANNELS 3 Zrotation Yrotation Xrotation
			JOINT Spine1
			{
				OFFSET 0.056720 2.048850 -0.042750
				CHANNELS 3 Zrotation Yrotation Xrotation
				JOINT Neck
				{
					OFFSET 0.000000 0.000000 0.000000
					CHANNELS 3 Zrotation Yrotation Xrotation
					JOINT Neck1
					{
						OFFSET -0.054170 1.746240 0.172020
						CHANNELS 3 Zrotation Yrotation Xrotation
						JOINT Head
						{
							OFFSET 0.104070 1.761360 -0.123970
							CHANNELS 3 Zrotation Yrotation Xrotation
							End Site
							{
								OFFSET 0.000000 0.000000 0.000000
							}
						}
					}
				}
				JOINT LeftShoulder
				{
					OFFSET 0.000000 0.000000 0.000000
					CHANNELS 3 Zrotation Yrotation Xrotation
					JOINT LeftArm
					{
						OFFSET 3.362410 1.200890 -0.311210
						CHANNELS 3 Zrotation Yrotation Xrotation
						JOINT LeftForeArm
						{
							OFFSET 4.983000 -0.000000 -0.000000
							CHANNELS 3 Zrotation Yrotation Xrotation
							JOINT LeftHand
							{
								OFFSET 3.483560 -0.000000 -0.000000
								CHANNELS 3 Zrotation Yrotation Xrotation
								JOINT LeftFingerBase
								{
									OFFSET 0.000000 0.000000 0.000000
									CHANNELS 3 Zrotation Yrotation Xrotation
									JOINT LeftHandIndex1
									{
										OFFSET 0.715260 -0.000000 -0.000000
										CHANNELS 3 Zrotation Yrotation Xrotation
										End Site
										{
											OFFSET 0.000000 0.000000 0.000000
										}
									}
								}
								JOINT LThumb
								{
									OFFSET 0.000000 0.000000 0.000000
									CHANNELS 3 Zrotation Yrotation Xrotation
									End Site
									{
										OFFSET 0.000000 0.000000 0.000000
									}
								}
							}
						}
					}
				}
				JOINT RightShoulder
				{
					OFFSET 0.000000 0.000000 0.000000
					CHANNELS 3 Zrotation Yrotation Xrotation
					JOINT RightArm
					{
						OFFSET -3.136600 1.374050 -0.404650
						CHANNELS 3 Zrotation Yrotation Xrotation
						JOINT RightForeArm
						{
							OFFSET -5.241900 -0.000000 -0.000000
							CHANNELS 3 Zrotation Yrotation Xrotation
							JOINT RightHand
							{
								OFFSET -3.444170 -0.000000 -0.000000
								CHANNELS 3 Zrotation Yrotation Xrotation
								JOINT RightFingerBase
								{
									OFFSET 0.000000 0.000000 0.000000
									CHANNELS 3 Zrotation Yrotation Xrotation
									JOINT RightHandIndex1
									{
										OFFSET -0.622530 -0.000000 -0.000000
										CHANNELS 3 Zrotation Yrotation Xrotation
										End Site
										{
											OFFSET 0.000000 0.000000 0.000000
										}
									}
								}
								JOINT RThumb
								{
									OFFSET 0.000000 0.000000 0.000000
									CHANNELS 3 Zrotation Yrotation Xrotation
									End Site
									{
										OFFSET 0.000000 0.000000 0.000000
									}
								}
							}
						}
					}
				}
			}
		}
	}
}
MOTION
Frames: 9
Frame Time: 0.008333
0.527063 17.584983 0.380098 -1.022775 3.583173 21.755491 0.805765 -0.944630 -0.337376 -12.364712 -0.867745 -47.115534 5.507092 16.425794 47.398341 3.486486 -2.971938 8.677332 1.166100 -6.854900 -19.286100 -2.356214 -0.438632 0.186878 20.576231 -9.510272 -53.035652 -5.448706 -16.892391 48.614501 -5.196741 9.409541 10.529347 -0.016900 0.838400 -2.304100 2.394335 -0.190201 7.128414 2.944325 -0.348242 -5.532003 2.997597 0.964443 -13.480502 1.155730 0.419866 11.684158 0.519228 -1.319123 -7.093261 -2.562300 -0.880300 -8.408700 -10.039063 -0.285530 1.233807 -51.286350 45.601085 53.545033 139.633213 -51.120274 -104.707035 -1.775202 -1.299789 -47.603070 -36.990981 38.976805 -24.014700 -7.125000 0.000000 0.000000 -73.447700 55.536500 -29.960800 12.719085 0.227976 0.919765 55.438642 -48.718500 36.394636 -143.113362 43.520813 -108.296882 2.251220 1.981946 -28.832303 53.037616 0.796688 -0.388000 7.125000 0.000000 0.000000 43.867100 -16.452200 47.580500 
0.527828 17.586295 0.377473 -1.046476 3.541803 21.826097 0.827758 -0.952335 -0.345522 -12.395797 -0.761467 -47.218552 5.487574 16.420319 47.356566 3.570715 -3.164034 8.789720 1.120300 -6.723600 -18.899200 -2.368827 -0.427788 0.180504 20.623312 -9.478877 -53.112130 -5.424841 -16.883015 48.562723 -5.209698 9.458123 10.570106 -0.017200 0.847000 -2.328000 2.435422 -0.177245 7.225901 2.944359 -0.319650 -5.581930 2.965826 0.975628 -13.633928 1.110220 0.406242 11.459030 0.545436 -1.342476 -7.083816 -2.541900 -0.896100 -8.344000 -10.017079 -0.310846 1.199799 -51.677172 45.794182 53.107602 139.573900 -51.175967 -104.651046 -1.769410 -1.290402 -47.442293 -37.140405 38.918548 -24.115800 -7.125000 0.000000 0.000000 -73.487700 55.474100 -29.870600 12.699910 0.247443 0.898584 55.806607 -48.977591 36.122895 -143.103326 43.520055 -108.282682 2.244093 1.978077 -28.793486 52.935513 0.861533 -0.304300 7.125000 0.000000 0.000000 43.854400 -16.482300 47.484000 
0.532749 17.590451 0.381519 -1.020138 3.572536 21.895837 0.826862 -0.960283 -0.346363 -12.453226 -0.721542 -47.251421 5.450419 16.395375 47.275514 3.699048 -3.451584 8.891994 1.008200 -6.389000 -17.917300 -2.375779 -0.426466 0.176181 20.641004 -9.591224 -53.165729 -5.389595 -16.859905 48.466740 -5.246434 9.556148 10.699453 -0.015700 0.808300 -2.221500 2.523763 -0.194139 7.212893 2.931570 -0.335267 -5.613966 2.885216 0.955656 -13.692910 1.007891 0.397138 11.189996 0.601997 -1.366707 -7.076317 -2.496300 -0.911900 -8.273000 -10.002431 -0.348205 1.157745 -52.119455 45.888092 52.629086 139.483913 -51.239893 -104.574615 -1.762440 -1.279767 -47.156543 -37.435073 38.737587 -24.280300 -7.125000 0.000000 0.000000 -73.480100 55.323500 -29.566500 12.689111 0.271533 0.881082 56.165118 -49.111693 35.846020 -143.091606 43.521009 -108.264553 2.245497 1.970043 -28.755654 53.013227 0.903888 -0.241000 7.125000 0.000000 0.000000 43.829400 -16.328800 47.695100 
0.537232 17.595590 0.385237 -0.972102 3.620883 21.952005 0.820892 -0.968078 -0.342546 -12.513653 -0.712045 -47.269423 5.411313 16.369175 47.212126 3.988397 -4.116569 9.023090 0.739000 -5.491900 -15.317000 -2.381255 -0.427657 0.170880 20.653525 -9.731653 -53.208301 -5.356793 -16.835661 48.364452 -5.243794 9.518981 10.797677 -0.022800 0.975300 -2.680900 2.580842 -0.206469 7.199318 2.926016 -0.347796 -5.641178 2.842061 0.943868 -13.740038 0.854884 0.396538 10.915694 0.649223 -1.393531 -7.117587 -2.443200 -0.926300 -8.223300 -9.996356 -0.392479 1.116094 -52.525399 45.890439 52.274677 139.404180 -51.286968 -104.504222 -1.749078 -1.260311 -46.804829 -37.620753 38.681828 -24.420800 -7.125000 0.000000 0.000000 -73.557600 55.252600 -29.488300 12.688359 0.299248 0.867397 56.481359 -49.148728 35.567110 -143.060513 43.533727 -108.235551 2.249191 1.957316 -28.708261 53.157394 0.912313 -0.213600 7.125000 0.000000 0.000000 43.807000 -16.129700 47.998700 
0.539638 17.612430 0.384253 -0.979848 3.669111 22.028162 0.816659 -0.981002 -0.344464 -12.499437 -0.697726 -47.291514 5.354703 16.334220 47.084665 4.215415 -4.645818 9.254515 0.554600 -4.770400 -13.254800 -2.373552 -0.419047 0.171313 20.715832 -9.800825 -53.243976 -5.304575 -16.796509 48.220825 -5.232500 9.462305 10.904033 -0.025900 1.038300 -2.854200 2.656422 -0.225879 7.251576 2.934887 -0.362151 -5.718670 2.811687 0.933830 -13.927753 0.810224 0.398701 10.675808 0.648133 -1.397216 -7.100676 -2.439400 -0.931200 -8.152600 -9.989466 -0.432468 1.075763 -52.889589 45.947895 51.991457 139.328681 -51.334633 -104.435414 -1.735981 -1.236391 -46.401300 -37.833312 38.681000 -24.610200 -7.125000 0.000000 0.000000 -73.726100 55.201600 -29.522900 12.693488 0.333616 0.856025 56.732281 -49.152356 35.368843 -143.017029 43.554425 -108.196564 2.259396 1.936380 -28.665009 53.453300 0.844605 -0.268400 7.125000 0.000000 0.000000 43.789100 -15.824700 48.512500 
0.544121 17.617241 0.384690 -1.034756 3.725230 22.105420 0.827430 -0.987963 -0.350555 -12.478837 -0.652914 -47.359419 5.332005 16.324394 46.999913 4.104973 -4.376014 9.278532 0.688100 -5.303200 -14.775300 -2.375070 -0.414046 0.178394 20.833789 -9.869092 -53.323989 -5.268244 -16.769572 48.131662 -5.235716 9.465814 10.977050 -0.026300 1.046600 -2.877000 2.787197 -0.253097 7.325018 2.956922 -0.378331 -5.838659 2.776920 0.920838 -14.219061 0.795117 0.411519 10.501876 0.650805 -1.381863 -7.028503 -2.444900 -0.926500 -8.066400 -9.981823 -0.467648 1.031134 -53.249890 46.065845 51.737656 139.230055 -51.400637 -104.351335 -1.733231 -1.212042 -46.042059 -38.279438 38.655642 -24.971000 -7.125000 0.000000 0.000000 -74.021900 55.089500 -29.538500 12.698492 0.360811 0.850423 56.843523 -49.192811 35.294512 -143.021311 43.542584 -108.190339 2.274094 1.912870 -28.523284 53.793282 0.778117 -0.325800 7.125000 0.000000 0.000000 43.764200 -15.458900 49.114200 
0.550245 17.623255 0.391798 -1.038671 3.743209 22.149234 0.814796 -0.988858 -0.343273 -12.519403 -0.601241 -47.358128 5.307301 16.301121 46.906854 3.935102 -3.964514 9.259226 0.864000 -5.926900 -16.572600 -2.371051 -0.415384 0.187663 20.868609 -9.961605 -53.349254 -5.234302 -16.741981 48.041821 -5.276717 9.577301 11.089636 -0.026500 1.051800 -2.891300 2.854314 -0.280527 7.341463 2.964020 -0.405577 -5.957561 2.746932 0.904237 -14.472183 0.815993 0.405882 10.320489 0.630017 -1.382176 -6.888555 -2.469600 -0.927200 -7.953400 -9.973412 -0.486721 0.999199 -53.472535 46.201270 51.605757 139.178992 -51.440213 -104.303713 -1.735824 -1.194248 -45.705469 -38.729301 38.581806 -25.308800 -7.125000 0.000000 0.000000 -74.254200 54.957500 -29.461200 12.704510 0.383080 0.843799 56.891343 -49.229519 35.365115 -143.040537 43.518118 -108.197381 2.280845 1.901477 -28.312983 53.929384 0.850020 -0.230500 7.125000 0.000000 0.000000 43.724400 -15.195900 49.471300 
0.555056 17.628504 0.400109 -0.979281 3.718991 22.226732 0.804864 -0.995218 -0.332930 -12.606587 -0.585873 -47.377557 5.273582 16.273895 46.832824 3.980151 -4.071852 9.353998 0.831300 -5.816500 -16.253000 -2.379372 -0.413112 0.186816 20.809057 -9.976835 -53.376120 -5.212667 -16.730978 47.979003 -5.303641 9.656955 11.181724 -0.022600 0.970300 -2.667000 2.848898 -0.280847 7.265613 2.947520 -0.411502 -6.069663 2.713094 0.899713 -14.655041 0.797115 0.379572 10.107940 0.625306 -1.411997 -6.711368 -2.476700 -0.938800 -7.821100 -9.974155 -0.499614 0.979112 -53.553797 46.252921 51.626579 139.192101 -51.429299 -104.307018 -1.734349 -1.202480 -45.456100 -38.871016 38.250186 -25.268400 -7.125000 0.000000 0.000000 -73.941500 54.777700 -28.839900 12.713342 0.404657 0.831435 56.948385 -49.221051 35.437618 -143.065049 43.489021 -108.208525 2.287151 1.883916 -28.039688 54.076050 0.888057 -0.175300 7.125000 0.000000 0.000000 43.692900 -14.949900 49.820800 
0.557353 17.632550 0.406232 -0.868246 3.658395 22.329771 0.795994 -1.007475 -0.326496 -12.743553 -0.580614 -47.428066 5.234290 16.244479 46.750813 4.016668 -4.162822 9.436300 0.794400 -5.689100 -15.885100 -2.399694 -0.404110 0.172213 20.686605 -9.926942 -53.421211 -5.191234 -16.729073 47.914186 -5.293771 9.639520 11.294889 -0.015700 0.808700 -2.222700 2.745780 -0.271730 7.123851 2.931187 -0.419711 -6.150634 2.737674 0.904855 -14.731709 0.658063 0.378692 9.873418 0.683634 -1.429483 -6.611753 -2.431100 -0.945200 -7.718100 -9.986358 -0.530724 0.952608 -53.684011 46.163568 51.616425 139.107104 -51.460346 -104.248782 -1.731756 -1.223143 -45.350373 -39.028274 37.735651 -25.146600 -7.125000 0.000000 0.000000 -73.407200 54.507400 -27.857600 12.731705 0.429637 0.826175 56.963386 -49.050269 35.480740 -143.055889 43.484693 -108.198138 2.296730 1.864129 -27.726878 54.325033 0.962582 -0.070700 7.125000 0.000000 0.000000 43.637700 -14.523700 50.416500 
